<svg xmlns="http://www.w3.org/2000/svg" width="512" height="512" viewBox="0 0 512 512">
  <defs>
    <radialGradient id="bg" cx="50%" cy="28%" r="95%">
      <stop offset="0%" stop-color="#17715a"/>
      <stop offset="100%" stop-color="#0d4534"/>
    </radialGradient>
  </defs>
  <rect width="512" height="512" rx="110" fill="url(#bg)"/>
  <rect x="26" y="26" width="460" height="460" rx="94" fill="none" stroke="#b8912f" stroke-width="9"/>

  <!-- المصحف المفتوح -->
  <path d="M256 150 C 214 120 138 120 92 142 L92 308 C 138 286 214 288 256 322 C 298 288 374 286 420 308 L420 142 C 374 120 298 120 256 150 Z"
        fill="#fdfaf1" stroke="#b8912f" stroke-width="10" stroke-linejoin="round"/>
  <path d="M256 150 L256 322" stroke="#b8912f" stroke-width="8"/>

  <!-- أسطر الصفحة اليمنى -->
  <line x1="286" y1="184" x2="390" y2="172" stroke="#0d4534" stroke-width="9" stroke-linecap="round" opacity="0.28"/>
  <line x1="286" y1="220" x2="390" y2="208" stroke="#0d4534" stroke-width="9" stroke-linecap="round" opacity="0.28"/>
  <line x1="286" y1="256" x2="390" y2="244" stroke="#0d4534" stroke-width="9" stroke-linecap="round" opacity="0.28"/>

  <!-- أسطر الصفحة اليسرى + الكلمة المرصودة -->
  <line x1="122" y1="172" x2="226" y2="184" stroke="#0d4534" stroke-width="9" stroke-linecap="round" opacity="0.28"/>
  <line x1="122" y1="208" x2="152" y2="211" stroke="#0d4534" stroke-width="9" stroke-linecap="round" opacity="0.28"/>
  <rect x="162" y="200" width="46" height="19" rx="9.5" fill="#c0392b" transform="rotate(6 185 210)"/>
  <line x1="122" y1="244" x2="226" y2="256" stroke="#0d4534" stroke-width="9" stroke-linecap="round" opacity="0.28"/>

  <!-- الاسم -->
  <text x="256" y="424" font-family="GeezaPro-Bold, Geeza Pro, Arial" font-size="100" font-weight="bold" fill="#f3dfa0" text-anchor="middle">رصد</text>
</svg>
